<svg width="142" height="68" viewBox="0 0 142 68" fill="none" xmlns="http://www.w3.org/2000/svg" role="img" aria-label="SOC Prime">
  <g clip-path="url(#clip0_socprime_logo_dark)">
    <path d="M136.6 7.38159C137.345 7.38159 138.06 7.67831 138.587 8.20643L140.865 10.4908C141.064 10.6903 141.175 10.9606 141.175 11.2424C141.175 11.8301 140.699 12.3064 140.112 12.3064H102.228V35.2888H140.112C140.699 35.2888 141.175 35.7652 141.175 36.3528C141.175 36.6346 141.064 36.905 140.865 37.1044L138.587 39.3888C138.06 39.9169 137.345 40.2137 136.6 40.2137H101.891C101.146 40.2137 100.431 39.9169 99.9046 39.3888L98.136 37.6154C97.6107 37.0886 97.3158 36.3751 97.3158 35.631V11.9642C97.3158 11.2201 97.6107 10.5066 98.136 9.97989L99.9046 8.20643C100.431 7.67831 101.146 7.38159 101.891 7.38159H136.6Z" fill="white"/>
    <path d="M39.5823 7.38159C40.3277 7.38159 41.0425 7.67831 41.5691 8.20643L43.8472 10.4908C44.0461 10.6903 44.1579 10.9606 44.1579 11.2424C44.1579 11.8301 43.6819 12.3064 43.0947 12.3064H6.96491V17.167L40.5719 23.0302C41.1423 23.1297 41.6679 23.4033 42.0768 23.8133L44.0395 25.7814C44.5647 26.3081 44.8596 27.0218 44.8596 27.7657V35.631C44.8596 36.3749 44.5647 37.0886 44.0395 37.6154L42.2709 39.3888C41.7442 39.9169 41.0295 40.2137 40.284 40.2137H5.57561C4.83017 40.2137 4.11544 39.9169 3.58877 39.3888L1.3107 37.1044C1.11175 36.905 1 36.6346 1 36.3528C1 35.7652 1.47596 35.2888 2.06316 35.2888H39.9474V28.1079L6.2914 22.4573C5.70316 22.3585 5.16158 22.0747 4.74526 21.6472L2.17246 19.0045C2.09579 18.9276 2.05263 18.8235 2.05263 18.715V11.9642C2.05263 11.2203 2.34754 10.5066 2.87281 9.97989L4.6414 8.20643C5.16807 7.67831 5.88281 7.38159 6.62824 7.38159H39.5823Z" fill="white"/>
    <path d="M28.8998 50.0459C29.4582 50.0459 29.9937 50.2678 30.3886 50.663L31.6114 51.8868C32.0063 52.282 32.2281 52.8178 32.2281 53.3767V56.8983C32.2281 57.4572 32.0063 57.993 31.6114 58.3882L30.3886 59.612C29.9937 60.0072 29.4582 60.2291 28.8998 60.2291H3.807V67.6032H0.649109V57.0688H29.0702V53.2062H1.14525C0.871215 53.2062 0.649109 52.9839 0.649109 52.7097C0.649109 52.578 0.70139 52.4516 0.794373 52.3585L2.48858 50.663C2.88349 50.2678 3.41893 50.0459 3.97735 50.0459H28.8998ZM60.6542 50.0459C61.2126 50.0459 61.7481 50.2678 62.143 50.663L63.3658 51.8868C63.7607 52.282 63.9824 52.8178 63.9824 53.3767V56.8983C63.9824 57.4572 63.7607 57.993 63.3658 58.3882L62.143 59.612C61.7481 60.0072 61.2126 60.2291 60.6542 60.2291H59.5179L63.4561 67.6032H59.9474L56.0091 60.2291H39.7719V67.6032H36.614V57.0688H60.8245V53.2062H36.614V50.0459H60.6542ZM104.163 50.0459C104.721 50.0459 105.257 50.2678 105.652 50.663L107.228 52.2406C107.491 52.5039 107.491 52.8551 107.491 53.0306V54.6108V67.6032H104.333V53.2062H94.1579V67.6032H91V53.2062H80.8245V67.6032H77.6667V53.3767C77.6667 52.8178 77.8884 52.282 78.2833 51.8868L79.5061 50.663C79.901 50.2678 80.4365 50.0459 80.9949 50.0459H104.163ZM137.847 50.0459C138.406 50.0459 138.941 50.2678 139.336 50.663L140.559 51.8868C140.954 52.282 141.175 52.8178 141.175 53.3767V56.8983C141.175 57.4572 140.954 57.993 140.559 58.3882L139.336 59.612C138.941 60.0072 138.406 60.2291 137.847 60.2291H118.895V57.0688H138.018V53.2062H114.509V64.4428H140.679C140.953 64.4428 141.175 64.6651 141.175 64.9394C141.175 65.071 141.123 65.1975 141.03 65.2905L139.336 66.986C138.941 67.3812 138.406 67.6032 137.847 67.6032H114.679C114.121 67.6032 113.585 67.3812 113.19 66.986L111.968 65.7623C111.573 65.3671 111.351 64.8312 111.351 64.2724V53.3767C111.351 52.8178 111.573 52.282 111.968 51.8868L113.19 50.663C113.585 50.2678 114.121 50.0459 114.679 50.0459H137.847Z" fill="white"/>
    <path d="M69.2456 67.6032H72.4035V50.0459H69.2456V67.6032Z" fill="#FFE824"/>
    <path d="M69.2916 0.601206C70.1602 0.0994026 71.2302 0.0994026 72.0986 0.601206L89.7268 10.7864C90.5953 11.2882 91.1304 12.2156 91.1304 13.2194V33.5902C91.1304 34.5937 90.5953 35.5211 89.7268 36.0229L79.2039 42.1028V36.4262L86.2181 32.3734V14.4357L70.6951 5.46665L55.1723 14.4357V32.3734L62.7126 36.7303V42.4071L51.6635 36.0229C50.7949 35.5211 50.26 34.5937 50.26 33.5902V13.2194C50.26 12.2156 50.7949 11.2882 51.6635 10.7864L69.2916 0.601206Z" fill="white"/>
    <path d="M70.8705 40.9916L75.5196 38.3052V43.9819L70.8705 46.6682L66.046 43.8805V38.2039L70.8705 40.9916Z" fill="#FFE824"/>
  </g>
  <defs>
    <clipPath id="clip0_socprime_logo_dark">
      <rect width="142" height="68" fill="white"/>
    </clipPath>
  </defs>
</svg>
